<?xml version="1.0" encoding="utf-8"?>
<svg xmlns="http://www.w3.org/2000/svg" height="48" width="48"
     viewBox="0 0 48 48">
    <g>
        <path id="path1"
              transform="rotate(0,24,24) translate(11,11) scale(0.8125,0.8125)  "
              fill="#FFFFFF"
              d="M2,23L2,30 30,30 30,23z M16,14C17.105,14 18,14.895 18,16 18,17.105 17.105,18 16,18 14.895,18 14,17.105 14,16 14,14.895 14.895,14 16,14z M8,13L8,21 13,21 13,18 16,18 19,18 19,21 24,21 24,13z M4,11L28,11C28.552999,11 29,11.447 29,12 29,12.553 28.552999,13 28,13L26,13 26,21 30,21C31.103027,21,32,21.896973,32,23L32,30C32,31.103027,31.103027,32,30,32L2,32C0.89697266,32,0,31.103027,0,30L0,23C0,21.896973,0.89697266,21,2,21L6,21 6,13 4,13C3.447,13 3,12.553 3,12 3,11.447 3.447,11 4,11z M25.514824,2.2918453C25.980614,2.3109722,26.383057,2.6530972,26.46092,3.1299725L27.524773,9.6509762C27.61376,10.195976 27.243811,10.709976 26.698887,10.798977 26.643896,10.807977 26.590902,10.811976 26.536911,10.811976 26.055977,10.811976 25.631037,10.462976 25.551048,9.9729757L24.486198,3.4529724C24.397211,2.9079723 24.767159,2.3929729 25.312082,2.3039722 25.380447,2.2929726 25.448282,2.2891121 25.514824,2.2918453z M20.514536,2.2918453C20.979847,2.3109722,21.383057,2.6530972,21.46092,3.1299725L22.524773,9.6509762C22.61376,10.195976 22.243811,10.709976 21.698887,10.798977 21.643896,10.807977 21.590902,10.811976 21.536911,10.811976 21.055977,10.811976 20.631037,10.462976 20.551048,9.9729757L19.486198,3.4529724C19.397211,2.9079723 19.767159,2.3929729 20.312082,2.3039722 20.380323,2.2929726 20.448063,2.2891121 20.514536,2.2918453z M11.473154,2.2906742C11.539699,2.2882156 11.607535,2.29245 11.675903,2.3039494 12.220849,2.3929501 12.590812,2.9079514 12.501821,3.4529533L11.436928,9.9729738C11.356936,10.462976 10.931978,10.811976 10.451026,10.811976 10.397032,10.811976 10.344037,10.807977 10.289042,10.798977 9.7440977,10.709976 9.3741341,10.195974 9.4631252,9.6509724L10.527019,3.1299515C10.604886,2.6530743,11.007346,2.3078861,11.473154,2.2906742z M6.472867,2.2906742C6.5394797,2.2882156 6.6074104,2.29245 6.6759033,2.3039494 7.2208486,2.3929501 7.5908117,2.9079514 7.5018206,3.4529533L6.4369273,9.9729738C6.3569355,10.462976 5.9319782,10.811976 5.4510264,10.811976 5.3970318,10.811976 5.3440371,10.807977 5.2890425,10.798977 4.7440972,10.709976 4.3741345,10.195974 4.4631252,9.6509724L5.5270185,3.1299515C5.6048861,2.6530743,6.0065799,2.3078861,6.472867,2.2906742z M15.994022,2.2480259L15.998023,2.2480259C16.550037,2.2500267,16.996048,2.6990242,16.994047,3.2510242L16.971046,9.8580103C16.969048,10.409009,16.522036,10.854008,15.971022,10.854008L15.967022,10.854008C15.415008,10.852008,14.968997,10.403008,14.970997,9.8500099L14.993998,3.2440243C14.995997,2.6930256,15.444009,2.2480259,15.994022,2.2480259z M6,0L26,0C26.552999,0 27,0.4470005 27,1 27,1.5529995 26.552999,2 26,2L6,2C5.447,2 5,1.5529995 5,1 5,0.4470005 5.447,0 6,0z"/>
    </g>
</svg>

